PathFileType	4	(X/Y/Z)	C:\Git\research_data\torsion_deformities_healthy_kinematics\simulations\TD07\pre\static_01\markers_HJC.trc
DataRate	CameraRate	NumFrames	NumMarkers	Units	OrigDataRate	OrigDataStartFrame	OrigNumFrames
200	200	4	40	mm	200	31	120
Frame#	Time	C7			T10			CLAV			STRN			RBAK			LASI			RASI			SACR			RT1			RT2			RT3			RKNE			RS1			RS2			RS3			RANK			RHEE			RTOE			RM5D			LT1			LT2			LT3			LKNE			LS1			LS2			LS3			LANK			LHEE			LTOE			LM5D			RHJC			LHJC			LKNM			LANM			RKNM			RANM			LKJC			LAJC			RKJC			RAJC		
		X1	Y1	Z1	X2	Y2	Z2	X3	Y3	Z3	X4	Y4	Z4	X5	Y5	Z5	X6	Y6	Z6	X7	Y7	Z7	X8	Y8	Z8	X9	Y9	Z9	X10	Y10	Z10	X11	Y11	Z11	X12	Y12	Z12	X13	Y13	Z13	X14	Y14	Z14	X15	Y15	Z15	X16	Y16	Z16	X17	Y17	Z17	X18	Y18	Z18	X19	Y19	Z19	X20	Y20	Z20	X21	Y21	Z21	X22	Y22	Z22	X23	Y23	Z23	X24	Y24	Z24	X25	Y25	Z25	X26	Y26	Z26	X27	Y27	Z27	X28	Y28	Z28	X29	Y29	Z29	X30	Y30	Z30	X31	Y31	Z31	X32	Y32	Z32	X33	Y33	Z33	X34	Y34	Z34	X35	Y35	Z35	X36	Y36	Z36	X37	Y37	Z37	X38	Y38	Z38	X39	Y39	Z39	X40	Y40	Z40	

31	0.150000	654.603333	1227.173706	349.285431	662.165527	1004.592773	345.093872	669.274109	1200.049194	222.833389	670.217407	1067.721436	154.657898	756.068787	1094.972900	360.813843	547.286804	796.909363	206.522507	803.167419	833.291138	199.067001	672.391174	853.713440	356.720001	865.410400	607.191040	310.003784	863.365417	546.762146	337.157593	875.541992	545.661255	288.856445	881.666931	442.226349	299.428772	915.568298	350.412994	351.569824	922.035583	287.367218	377.048279	937.852783	292.910614	326.777496	962.244385	87.283813	321.991180	922.943726	45.924248	358.803101	978.948914	47.608898	167.461578	1003.123169	34.408062	257.754791	482.551178	615.359131	254.497299	473.165863	559.389038	290.120911	482.390991	550.813721	239.596924	452.963440	421.869843	304.559052	400.960114	310.162506	318.662109	386.082886	255.372528	353.458984	381.379639	248.726196	302.674713	348.722931	71.242447	335.045288	387.106201	43.329529	357.685486	297.914307	42.709866	178.687851	286.216278	29.760509	273.335815	779.270251	755.020529	268.177346	595.940430	728.954216	273.518964	542.379944	383.004852	261.317352	407.283417	67.478218	271.891357	792.880859	404.812561	267.877167	888.355042	74.985931	278.270630	497.671692	402.437347	282.938202	378.003174	69.360332	303.468323	837.273895	423.519455	283.652969	925.299713	81.134872	300.130905	
32	0.155000	654.569641	1227.213257	349.257385	662.191650	1004.602905	345.100037	669.242859	1200.059326	222.810013	670.198486	1067.732300	154.629211	756.080078	1095.022705	360.792175	547.280396	796.921875	206.583374	803.161377	833.287048	199.103989	672.396301	853.720764	356.766998	865.395630	607.194824	310.034180	863.343689	546.768921	337.187073	875.539673	545.664307	288.884521	881.660522	442.230347	299.458008	915.576904	350.409515	351.604095	922.044800	287.358093	377.058289	937.851318	292.916931	326.791077	962.248657	87.285339	321.990234	922.946228	45.923992	358.805969	978.947693	47.610817	167.462372	1003.120850	34.408489	257.759705	482.539856	615.368103	254.550766	473.154449	559.393127	290.169495	482.385193	550.820251	239.648544	452.954865	421.871948	304.585388	400.953339	310.161896	318.679688	386.081970	255.375717	353.466614	381.375366	248.727036	302.687592	348.725891	71.240723	335.046600	387.108856	43.327072	357.683319	297.913116	42.708996	178.688843	286.216736	29.758932	273.336853	779.265613	755.020060	268.218092	595.935459	728.965632	273.576821	542.371216	383.013672	261.344757	407.283173	67.480606	271.892731	792.872681	404.811890	267.908234	888.357910	74.987373	278.275391	497.663040	402.442810	282.965073	378.004532	69.360664	303.469666	837.266602	423.521118	283.683121	925.303284	81.136356	300.132812	
33	0.160000	654.536682	1227.252319	349.229340	662.217896	1004.612854	345.105682	669.211731	1200.069336	222.786011	670.178772	1067.743286	154.600204	756.091248	1095.071289	360.769806	547.273682	796.934326	206.643066	803.154968	833.282959	199.138702	672.401855	853.727844	356.812317	865.380798	607.198669	310.062622	863.321289	546.775696	337.216614	875.537231	545.667297	288.910797	881.654114	442.234344	299.485840	915.585266	350.406281	351.636932	922.053833	287.349548	377.067535	937.849854	292.923187	326.803894	962.252808	87.286880	321.989227	922.948547	45.923740	358.808746	978.946533	47.612625	167.463150	1003.118652	34.408920	257.764343	482.528473	615.377014	254.603165	473.143158	559.397217	290.217072	482.378815	550.826965	239.698975	452.946350	421.874054	304.610992	400.946625	310.161316	318.696777	386.081116	255.378860	353.473938	381.371185	248.727859	302.700104	348.728973	71.239052	335.047821	387.111511	43.324715	357.681152	297.911926	42.708134	178.689789	286.217194	29.757412	273.337860	779.260940	755.019493	268.256554	595.930494	728.976904	273.633182	542.362549	383.022369	261.371277	407.282959	67.482918	271.893982	792.864563	404.811218	267.938202	888.360657	74.988739	278.280060	497.654449	402.448212	282.991135	378.005966	69.360985	303.470901	837.259338	423.522781	283.712021	925.306732	81.137810	300.134644	
34	0.165000	654.504333	1227.290894	349.201324	662.244141	1004.622681	345.110809	669.180786	1200.079346	222.761383	670.158264	1067.754272	154.570892	756.102356	1095.118774	360.746704	547.266541	796.946777	206.701584	803.148071	833.278870	199.171127	672.407776	853.734802	356.855865	865.366028	607.202637	310.089142	863.298157	546.782410	337.246246	875.534668	545.670288	288.935303	881.647705	442.238373	299.512299	915.593384	350.403259	351.668274	922.062622	287.341583	377.075958	937.848328	292.929443	326.815918	962.256714	87.288445	321.988251	922.950867	45.923500	358.811432	978.945312	47.614315	167.463943	1003.116638	34.409355	257.768677	482.517029	615.385864	254.654526	473.131927	559.401306	290.263641	482.371887	550.833801	239.748199	452.937897	421.876160	304.635803	400.940033	310.160797	318.713348	386.080292	255.381958	353.480957	381.367035	248.728668	302.712250	348.732117	71.237434	335.049011	387.114136	43.322453	357.679047	297.910736	42.707279	178.690704	286.217682	29.755945	273.338837	779.256090	755.018873	268.292752	595.925396	728.988125	273.688076	542.353943	383.030975	261.396912	407.282806	67.485161	271.895172	792.856384	404.810486	267.967041	888.363220	74.990044	278.284637	497.645920	402.453568	283.016357	378.007462	69.361298	303.472092	837.252045	423.524429	283.739670	925.309967	81.139244	300.136444	
